<?xml version="1.0" encoding="UTF-8"?><svg id="Layer_2" xmlns="http://www.w3.org/2000/svg" viewBox="0 0 496 496"><defs><style>.cls-1{fill:#f2773f;stroke-width:0px;}</style></defs><g id="Layer_1-2"><path class="cls-1" d="m248,0C110.94,0,0,110.92,0,248s110.92,248,248,248c48.15,0,95.34-14.14,135.41-40.22,12.01-7.82,14.62-24.29,5.55-35.37l-10.18-12.43c-7.67-9.37-21.18-11.67-31.37-5.13-29.49,18.91-64.1,29.16-99.41,29.16-101.46,0-184-82.54-184-184S146.54,64,248,64s184,57.62,184,160c0,38.79-21.09,79.74-58.17,83.69-17.35-.45-16.91-12.86-13.48-30.02l23.43-121.11c2.87-14.81-8.48-28.56-23.56-28.56h-44.98c-6.88,0-12.66,5.16-13.43,11.99v.09c-14.71-17.9-40.46-21.78-59.98-21.78-74.58,0-137.83,62.23-137.83,151.46,0,65.3,36.79,105.87,96,105.87,26.98,0,57.37-15.64,74.99-38.33,9.52,34.1,40.61,34.1,70.71,34.1,108.91,0,150.3-71.61,150.3-147.41C496,87.65,386.02,0,248,0Zm-21.68,304.43c-22.25,0-36.07-15.62-36.07-40.77,0-44.99,30.78-72.73,58.63-72.73,22.29,0,35.6,15.24,35.6,40.77,0,45.06-33.88,72.73-58.16,72.73h0Z"/></g></svg>