<?xml version="1.0" encoding="UTF-8"?><svg id="Layer_2" xmlns="http://www.w3.org/2000/svg" viewBox="0 0 511.2 800"><defs><style>.cls-1{fill:#f2773f;stroke-width:0px;}</style></defs><g id="Capa_1"><path class="cls-1" d="m255.6,0C114.43,0,0,114.43,0,255.6c0,60.88,21.41,116.7,56.98,160.58,11.47,14.12,30.65,36.36,40.64,51.56,57.57,87.46,131.43,214.48,152.95,318.72,3.69,17.8,8.14,18.11,12.94.58,15.35-56.21,55.17-179.02,137.39-307.52,9.8-15.32,29.68-36.77,42.02-50.12,17.87-19.36,32.75-41.52,44.06-65.68,15.41-32.96,24.22-69.45,24.22-108.08,0-141.19-114.43-255.63-255.6-255.63Zm0,393.7c-78.8,0-142.67-63.88-142.67-142.67s63.88-142.66,142.67-142.66,142.67,63.88,142.67,142.66c0,78.8-63.88,142.67-142.67,142.67Z"/><circle class="cls-1" cx="255.6" cy="245.99" r="59.33"/></g></svg>