<?xml version="1.0" encoding="UTF-8"?><svg id="Layer_2" xmlns="http://www.w3.org/2000/svg" viewBox="0 0 1080 1080"><defs><style>.cls-1{fill-rule:evenodd;stroke-width:0px;}</style></defs><g id="Layer_1-2"><path class="cls-1" d="m540,0c298.03,0,540,241.97,540,540s-241.97,540-540,540S0,838.03,0,540,241.97,0,540,0Zm256.35,284.44c-64.64-64.7-150.61-100.35-242.2-100.38-188.72,0-342.32,153.54-342.39,342.26-.03,60.33,15.74,119.21,45.7,171.12l-48.57,177.37,181.51-47.6c50.01,27.27,106.31,41.64,163.62,41.66h.14c188.7,0,342.31-153.56,342.39-342.28.04-91.46-35.55-177.46-100.19-242.15h0Zm-242.2,526.62h-.11c-51.07-.02-101.15-13.73-144.84-39.65l-10.39-6.17-107.71,28.25,28.75-104.98-6.77-10.76c-28.49-45.29-43.53-97.65-43.51-151.4.06-156.86,127.73-284.47,284.7-284.47,76.01.03,147.46,29.66,201.19,83.43,53.73,53.77,83.3,125.25,83.27,201.27-.06,156.87-127.72,284.49-284.58,284.49h0Zm156.1-213.07c-8.56-4.28-50.62-24.97-58.46-27.82-7.84-2.85-13.54-4.28-19.25,4.28-5.7,8.56-22.1,27.83-27.09,33.53-4.99,5.71-9.98,6.42-18.54,2.14-8.56-4.28-36.12-13.31-68.8-42.45-25.43-22.68-42.6-50.69-47.59-59.25-4.99-8.56-.53-13.19,3.75-17.46,3.85-3.83,8.55-9.99,12.83-14.98s5.7-8.56,8.56-14.27c2.85-5.71,1.43-10.7-.71-14.99-2.14-4.28-19.25-46.38-26.38-63.5-6.94-16.68-14-14.42-19.25-14.68-4.98-.25-10.69-.3-16.4-.3s-14.97,2.14-22.81,10.7c-7.84,8.56-29.94,29.25-29.94,71.35s30.66,82.76,34.93,88.47c4.28,5.71,60.33,92.09,146.15,129.14,20.41,8.81,36.35,14.07,48.77,18.02,20.49,6.51,39.14,5.59,53.89,3.39,16.44-2.46,50.62-20.69,57.74-40.67,7.13-19.98,7.13-37.1,4.99-40.67-2.14-3.57-7.84-5.71-16.4-9.99h0Z"/></g></svg>