<?xml version="1.0" encoding="UTF-8"?><svg id="Layer_2" xmlns="http://www.w3.org/2000/svg" viewBox="0 0 26 26"><defs><style>.cls-1{stroke-width:0px;}</style></defs><g id="Layer_1-2"><path class="cls-1" d="m13,0C5.83,0,0,5.83,0,13s5.83,13,13,13,13-5.83,13-13S20.17,0,13,0Zm-3.33,4h6.67c3.12,0,5.67,2.54,5.67,5.67v6.67c0,3.12-2.54,5.67-5.67,5.67h-6.67c-3.12,0-5.67-2.54-5.67-5.67v-6.67c0-3.12,2.54-5.67,5.67-5.67Zm0,2c-2.02,0-3.67,1.65-3.67,3.67v6.67c0,2.02,1.65,3.67,3.67,3.67h6.67c2.02,0,3.67-1.65,3.67-3.67v-6.67c0-2.02-1.65-3.67-3.67-3.67h-6.67Zm8,1.67c.37,0,.67.3.67.67s-.3.67-.67.67-.67-.3-.67-.67.3-.67.67-.67Zm-4.67.33c2.76,0,5,2.24,5,5s-2.24,5-5,5-5-2.24-5-5,2.24-5,5-5Zm0,2c-1.66,0-3,1.34-3,3s1.34,3,3,3,3-1.34,3-3-1.34-3-3-3Z"/></g></svg>