<?xml version="1.0" encoding="UTF-8"?><svg id="Layer_2" xmlns="http://www.w3.org/2000/svg" viewBox="0 0 112.18 81.29"><defs><style>.cls-1{fill:#f2773f;stroke-width:0px;}</style></defs><g id="Layer_1-2"><path class="cls-1" d="m2.31,80.7c-.71-.4-1.27-.95-1.68-1.65-.41-.7-.62-1.5-.62-2.39s.21-1.67.62-2.38c.41-.7.98-1.25,1.68-1.65.71-.4,1.48-.6,2.33-.6s1.63.2,2.34.6,1.26.95,1.67,1.65c.41.7.62,1.5.62,2.38s-.21,1.69-.62,2.39c-.41.7-.97,1.25-1.68,1.65s-1.49.6-2.33.6-1.62-.2-2.33-.6Zm3.77-1.39c.41-.25.74-.6.97-1.06.23-.46.35-.99.35-1.59s-.12-1.13-.35-1.59c-.23-.45-.56-.8-.97-1.04-.41-.24-.89-.36-1.44-.36s-1.03.12-1.44.36c-.42.24-.75.59-.98,1.04-.23.45-.35.98-.35,1.59s.12,1.14.35,1.59c.23.46.56.81.98,1.06.42.25.9.37,1.44.37s1.02-.12,1.44-.37Z"/><path class="cls-1" d="m18.67,81.2h-1.81l-4.11-6.21v6.21h-1.81v-9.05h1.81l4.11,6.22v-6.22h1.81v9.05Z"/><path class="cls-1" d="m27.97,72.16l-3.06,5.89v3.15h-1.81v-3.15l-3.07-5.89h2.05l1.94,4.13,1.93-4.13h2.02Z"/><path class="cls-1" d="m34.75,81.2l-1.96-3.04-1.77,3.04h-2.05l2.85-4.56-2.89-4.48h2.09l1.96,3.03,1.76-3.03h2.05l-2.84,4.55,2.89,4.5h-2.09Z"/><path class="cls-1" d="m47.62,72.72c.72.37,1.28.9,1.67,1.59s.59,1.48.59,2.39-.2,1.7-.59,2.38-.95,1.2-1.67,1.57c-.72.37-1.56.56-2.51.56h-3.16v-9.04h3.16c.95,0,1.79.19,2.51.56Zm-.37,6.17c.52-.52.78-1.25.78-2.19s-.26-1.68-.78-2.21c-.52-.53-1.25-.8-2.2-.8h-1.28v5.97h1.28c.95,0,1.68-.26,2.2-.78Z"/><path class="cls-1" d="m53.38,73.62v2.27h3.04v1.44h-3.04v2.4h3.43v1.48h-5.25v-9.05h5.25v1.48h-3.43Z"/><path class="cls-1" d="m66.51,81.2h-1.81l-4.11-6.21v6.21h-1.81v-9.05h1.81l4.11,6.22v-6.22h1.81v9.05Z"/><path class="cls-1" d="m74.78,72.16v1.46h-2.41v7.58h-1.81v-7.58h-2.41v-1.46h6.63Z"/><path class="cls-1" d="m78.24,72.16v9.04h-1.81v-9.04h1.81Z"/><path class="cls-1" d="m81.77,80.97c-.51-.22-.91-.53-1.2-.93-.29-.41-.45-.88-.45-1.44h1.94c.03.37.16.67.4.88.24.22.56.32.98.32s.76-.1,1-.3c.24-.2.36-.47.36-.8,0-.27-.08-.49-.25-.66-.16-.17-.37-.31-.62-.41-.25-.1-.58-.21-1.02-.33-.59-.17-1.06-.34-1.43-.51-.37-.17-.68-.42-.95-.76-.26-.34-.4-.8-.4-1.37,0-.54.13-1,.4-1.4s.64-.7,1.13-.91,1.04-.32,1.66-.32c.93,0,1.69.23,2.27.68s.9,1.09.96,1.9h-2c-.02-.31-.15-.57-.39-.77-.25-.2-.57-.3-.98-.3-.35,0-.64.09-.85.27-.21.18-.32.45-.32.79,0,.24.08.44.24.6s.36.29.6.39.57.21,1,.34c.59.17,1.07.35,1.44.52.37.17.69.43.96.78s.4.8.4,1.36c0,.48-.12.93-.38,1.35-.25.42-.62.75-1.1.99s-1.06.37-1.72.37c-.63,0-1.2-.11-1.7-.32Z"/><path class="cls-1" d="m94.71,72.16v1.46h-2.41v7.58h-1.81v-7.58h-2.41v-1.46h6.63Z"/><path class="cls-1" d="m101.02,81.2l-1.99-3.52h-.86v3.52h-1.81v-9.04h3.39c.7,0,1.29.12,1.79.37.49.25.86.58,1.11,1s.37.89.37,1.41c0,.6-.17,1.13-.52,1.61-.35.48-.86.81-1.54.99l2.16,3.67h-2.1Zm-2.85-4.88h1.52c.49,0,.86-.12,1.1-.36.24-.24.36-.57.36-.99s-.12-.74-.36-.96c-.24-.23-.61-.34-1.1-.34h-1.52v2.66Z"/><path class="cls-1" d="m112.18,72.16l-3.06,5.89v3.15h-1.81v-3.15l-3.07-5.89h2.05l1.94,4.13,1.93-4.13h2.02Z"/><path class="cls-1" d="m91.67,30.57c-.19-.1-4.44-2.33-9.54-2.5,2.64-6.59,3.75-13.99,3.82-14.49l.16-1.13-1.14.11c-4.58.44-8.19,1.21-11.02,2.11-1.24-6.57-1.63-7.03-1.78-7.2l-.42-.49-.6.24s-2.07.84-4.15,1.79c-1.9.87-3.04,1.47-3.75,1.91-2.65-6.14-6.44-10.08-6.63-10.27l-.64-.66-.64.66c-.18.19-3.98,4.13-6.63,10.27-.71-.44-1.85-1.05-3.75-1.91-2.08-.95-4.13-1.78-4.15-1.79l-.6-.24-.42.49c-.15.18-.54.63-1.78,7.2-2.83-.91-6.44-1.68-11.02-2.11l-1.14-.11.16,1.13c.07.49,1.18,7.9,3.82,14.48-5.1.16-9.35,2.39-9.54,2.5l-.96.51.68.84c.08.1,1.95,2.4,4.76,5.16,3.8,3.73,7.34,6.36,10.5,7.82,2.15.99,4.71,1.35,7.29,1.35.5,0,.99-.01,1.49-.04-.02.5-.07,1.01-.17,1.53.1,1.56.12,3.04.31,4.5.28,2.2.97,4.27,2.64,5.85,1.99,1.87,4.09,1.45,4.98-1.11.48-1.37.52-2.88.83-4.32.36-1.7.64-3.44,1.26-5.03.28-.71,1.33-1.53,2.03-1.53.7,0,1.76.83,2.03,1.54.63,1.66.87,3.46,1.27,5.2.36,1.59.5,3.26,1.11,4.74.75,1.83,2.42,2.14,4.06,1.01,1.67-1.15,2.63-2.85,2.92-4.76.37-2.47.52-4.99.51-7.48,0-.04,0-.09,0-.13.51.03,1.01.04,1.52.04,2.58,0,5.14-.36,7.29-1.35,3.17-1.46,6.7-4.09,10.5-7.82,2.81-2.76,4.68-5.06,4.76-5.16l.68-.84-.96-.51Zm-7.68-16.1c-.3,1.71-.98,5.14-2.09,8.8-2.04,6.7-4.59,11.09-7.37,12.67-1.51.86-3.05,1.59-4.58,2.22.49-1.2.93-2.43,1.21-3.68,1.17-5.11-1.3-9-5.49-9.85.09-.97.11-1.94.09-2.93.25-.39,1.16-1.63,3.43-3,4.27-2.57,10.2-3.72,14.8-4.24Zm-13.02-5.23c.32,1.21.83,3.66,1.28,6.03-3.43,1.3-5.49,2.78-6.68,3.92-.22-1.79-.63-3.6-1.23-5.41-.13-.39-.27-.78-.41-1.16.93-.66,3.79-2.03,7.03-3.38Zm-21.65,5.15c1.87-5.76,5.26-10.12,6.67-11.77,1.4,1.64,4.77,5.96,6.65,11.71,1.12,3.44,1.54,6.83,1.25,10.12-.79,0-1.63.1-2.51.3-.37.09-.75.16-1.11.29-2.89,1.04-5.76,1-8.66,0-.87-.3-1.8-.48-2.71-.57-.28-.03-.56-.05-.83-.05-.28-3.27.13-6.63,1.24-10.04Zm-8.31-5.15c3.25,1.35,6.1,2.72,7.03,3.38-.14.38-.28.77-.41,1.16-.59,1.82-1,3.62-1.23,5.41-1.19-1.14-3.25-2.61-6.68-3.92.45-2.37.96-4.83,1.28-6.03Zm-13.02,5.23c4.6.52,10.53,1.67,14.8,4.24,2.28,1.37,3.19,2.61,3.43,3-.03.95,0,1.9.08,2.84-2.91.48-4.77,2.47-5.54,5.9-.62,2.74.06,5.27,1.15,7.67-1.48-.62-2.99-1.34-4.46-2.17-5.85-3.33-8.73-17.35-9.46-21.47Zm8.06,28.8c-5.82-2.68-11.82-9.22-13.88-11.6,1.6-.68,4.88-1.86,8.44-1.82,1.53,3.33,3.49,6.24,5.95,7.64,2.11,1.2,4.3,2.17,6.4,2.96.52,1.3.89,2.62,1.04,3.96-2.83.15-5.68-.1-7.96-1.14Zm31.27-4.39c-.05.11-.1.22-.15.33-.31.71-.57,1.42-.78,2.13-.28.95-.47,1.9-.57,2.89-.06.59-.09,1.19-.08,1.8,0,.09,0,.18,0,.28.06,2.17-.05,4.37-.34,6.52-.23,1.73-.94,3.34-3.02,4.46-.33-1.32-.66-2.42-.88-3.54-.41-2.08-.61-4.22-1.19-6.24-.36-1.25-1.01-2.29-1.99-2.94-.63-.42-1.4-.68-2.32-.73-.86-.04-1.7.22-2.43.74-.88.63-1.6,1.65-2,2.99-.59,1.97-.76,4.06-1.15,6.09-.22,1.14-.53,2.26-.83,3.49-1.84-.66-2.56-1.95-2.8-3.3-.03-.14-.05-.28-.07-.42,0-.06-.02-.11-.03-.17-.01-.09-.03-.17-.04-.26,0-.06-.02-.12-.03-.18-.01-.08-.03-.17-.04-.25,0-.06-.02-.12-.03-.18-.01-.08-.02-.16-.04-.24,0-.06-.02-.13-.03-.19-.01-.08-.02-.16-.03-.24,0-.06-.02-.13-.03-.19-.01-.08-.02-.16-.03-.24,0-.07-.02-.13-.02-.2,0-.08-.02-.16-.03-.23,0-.07-.01-.13-.02-.2,0-.08-.02-.15-.02-.23,0-.07-.01-.13-.02-.2,0-.08-.01-.15-.02-.23,0-.07-.01-.13-.02-.2,0-.08-.01-.15-.02-.23,0-.07,0-.14-.01-.2,0-.08-.01-.15-.01-.23,0-.07,0-.14-.01-.2,0-.08,0-.15-.01-.23,0-.07,0-.14,0-.2,0-.08,0-.15,0-.23,0-.07,0-.14,0-.2,0-.08,0-.15,0-.23,0-.07,0-.14,0-.2,0-.07,0-.15,0-.22,0-.07,0-.14,0-.21,0-.09,0-.19,0-.28.01-.3.01-.6,0-.9,0-.6-.04-1.2-.11-1.8-.11-.99-.3-1.96-.57-2.92-.21-.72-.46-1.44-.76-2.13-.11-.26-.23-.51-.35-.76-.02-.05-.05-.09-.07-.14-.02-.04-.04-.07-.05-.11-.02-.04-.04-.07-.05-.11-.02-.04-.03-.07-.05-.11-.02-.04-.03-.07-.05-.11-.02-.04-.04-.07-.05-.11-.02-.04-.03-.07-.05-.11-.02-.04-.03-.07-.05-.11-.02-.04-.03-.07-.05-.11-.02-.04-.03-.07-.05-.11-.02-.04-.03-.07-.05-.11-.02-.04-.03-.07-.05-.11-.02-.04-.03-.07-.05-.11-.02-.04-.03-.07-.05-.11-.02-.04-.03-.07-.05-.11-.02-.04-.03-.07-.05-.11-.02-.04-.03-.07-.05-.11-.01-.04-.03-.07-.04-.11-.01-.04-.03-.08-.04-.11-.01-.04-.03-.07-.04-.11-.01-.04-.03-.08-.04-.12-.01-.04-.03-.07-.04-.11-.01-.04-.03-.08-.04-.11-.01-.04-.03-.07-.04-.11-.01-.04-.03-.08-.04-.11-.01-.04-.02-.07-.04-.11-.01-.04-.02-.08-.04-.12-.01-.04-.02-.07-.03-.11-.01-.04-.02-.08-.03-.12-.01-.04-.02-.07-.03-.11-.01-.04-.02-.08-.03-.12-.01-.04-.02-.07-.03-.11-.01-.04-.02-.08-.03-.12,0-.04-.02-.07-.03-.11,0-.04-.02-.08-.03-.12,0-.04-.02-.07-.02-.11,0-.04-.02-.08-.02-.12,0-.04-.02-.07-.02-.11,0-.04-.01-.08-.02-.12,0-.04-.01-.07-.02-.11,0-.04-.01-.08-.02-.13,0-.04-.01-.07-.02-.11,0-.04-.01-.08-.02-.13,0-.04,0-.07-.01-.11,0-.04,0-.08-.01-.13,0-.04,0-.07-.01-.11,0-.04,0-.09,0-.13,0-.04,0-.08,0-.11,0-.04,0-.09,0-.13,0-.04,0-.08,0-.11,0-.04,0-.09,0-.13,0-.04,0-.07,0-.11,0-.05,0-.09,0-.14,0-.04,0-.07,0-.11,0-.05,0-.09,0-.14,0-.04,0-.07,0-.11,0-.05,0-.09.01-.14,0-.04,0-.07,0-.11,0-.05.01-.1.02-.15,0-.03,0-.07.01-.1,0-.05.02-.11.02-.16,0-.03,0-.06.01-.09.01-.08.03-.17.05-.25.49-2.43,1.79-3.95,3.75-4.36.55-.12,1.15-.14,1.81-.08.19.02.38.04.57.08,1.54.26,3.04.73,4.72,1.15-.39.42-.74.62-.81.89-.02.08-.04.17-.05.26,0,.03,0,.05-.01.08,0,.06-.02.13-.03.19,0,.01,0,.03,0,.04,0,0,0,0,0,.01-.06.66.55,1.22,1.19,1.07.06-.01.12-.03.16-.06s.09-.05.13-.09c2.51-2.45,5.78-3.03,8.99-3.57.13-.02.25-.04.38-.05.64-.07,1.24-.03,1.81.09,2.63.59,4.28,3.17,3.78,6.53-.29,1.96-1.04,3.9-1.87,5.72Zm8.6,4.39c-2.28,1.05-5.14,1.29-7.96,1.14.14-1.35.46-2.65.99-3.94,2.12-.79,4.33-1.77,6.47-2.98,2.46-1.4,4.42-4.31,5.95-7.64,3.56-.04,6.84,1.14,8.44,1.82-2.06,2.38-8.06,8.91-13.88,11.6Z"/></g></svg>