<svg xmlns="http://www.w3.org/2000/svg" xmlns:v="https://vecta.io/nano" width="16" height="16"><style>#B{animation:esNFyEAr6LS2_f_o 3000ms linear infinite normal forwards}@keyframes esNFyEAr6LS2_f_o{0%{fill-opacity:1}16.666667%{fill-opacity:0}33.333333%{fill-opacity:0}50%{fill-opacity:1}100%{fill-opacity:1}}</style><defs><linearGradient id="A" x1="-15.251" y1="45.364" x2="28.892" y2="30.676" spreadMethod="pad" gradientUnits="userSpaceOnUse"><stop offset="0%" stop-color="#35e0d1"></stop><stop offset="100%" stop-color="#ee83ef"></stop></linearGradient></defs><path id="B" d="M1.478 9.605l.654.306a8.52 8.52 0 0 1 3.887 3.7l.64 1.208a1.47 1.47 0 0 0 1.298.781 1.47 1.47 0 0 0 1.298-.781l.64-1.208a8.52 8.52 0 0 1 3.888-3.7l.654-.306a1.47 1.47 0 0 0 .845-1.386 1.47 1.47 0 0 0-.947-1.318 8.44 8.44 0 0 1-4.592-4.178l-.468-.952A1.47 1.47 0 0 0 7.958.95a1.47 1.47 0 0 0-1.319.821l-.468.952A8.44 8.44 0 0 1 1.58 6.901a1.47 1.47 0 0 0-.947 1.318 1.47 1.47 0 0 0 .844 1.386zM7.957 5.47c.758 1.099 1.704 2.056 2.794 2.826a11.52 11.52 0 0 0-2.793 2.85c-.758-1.105-1.704-2.07-2.793-2.85A11.35 11.35 0 0 0 7.957 5.47z" fill="url(#A)" fill-rule="evenodd" stroke="none"></path></svg>