<svg xmlns="http://www.w3.org/2000/svg" xmlns:v="https://vecta.io/nano" width="42" height="49"><style>#B{animation:eIZ1vA9uCpe2_f_o 5000ms linear infinite normal forwards}#C{animation:eIZ1vA9uCpe3_f_o 5000ms linear infinite normal forwards}#D{animation:eIZ1vA9uCpe4_f_o 5000ms linear infinite normal forwards}@keyframes eIZ1vA9uCpe2_f_o{0%{fill-opacity:1}70%{fill-opacity:1}80%{fill-opacity:0}90%{fill-opacity:0}100%{fill-opacity:1}} @keyframes eIZ1vA9uCpe3_f_o{0%{fill-opacity:1}30%{fill-opacity:1}40%{fill-opacity:0}50%{fill-opacity:0}60%{fill-opacity:1}100%{fill-opacity:1}} @keyframes eIZ1vA9uCpe4_f_o{0%{fill-opacity:1}10%{fill-opacity:1}20%{fill-opacity:0}30%{fill-opacity:0}40%{fill-opacity:1}100%{fill-opacity:1}}</style><defs><linearGradient id="A" x1="31.444" y1="-4.418" x2="-13.563" y2="10.558" spreadMethod="pad" gradientUnits="userSpaceOnUse"><stop offset="0%" stop-color="#35e0d1"></stop><stop offset="100%" stop-color="#ee83ef"></stop></linearGradient></defs><path id="B" d="M29.49 5.042l-.538-.252a7.02 7.02 0 0 1-3.202-3.047l-.527-.995a1.21 1.21 0 0 0-1.069-.643 1.21 1.21 0 0 0-1.069.643l-.527.995c-.711 1.334-1.834 2.403-3.202 3.047l-.538.252a1.21 1.21 0 0 0-.696 1.142 1.21 1.21 0 0 0 .78 1.086 6.95 6.95 0 0 1 3.782 3.442l.385.784a1.21 1.21 0 0 0 1.085.676 1.21 1.21 0 0 0 1.086-.676l.386-.784a6.95 6.95 0 0 1 3.781-3.441 1.21 1.21 0 0 0 .78-1.086 1.21 1.21 0 0 0-.695-1.142zm-5.337 3.406c-.624-.905-1.403-1.694-2.301-2.328a9.49 9.49 0 0 0 2.301-2.348c.625.91 1.403 1.705 2.301 2.348-.898.635-1.676 1.423-2.3 2.328z" fill="url(#A)" fill-rule="evenodd" stroke="none"></path><path id="C" d="M40.946 40.781l-.57-.267c-1.449-.683-2.639-1.815-3.392-3.229l-.559-1.054a1.28 1.28 0 0 0-1.133-.681 1.28 1.28 0 0 0-1.133.681l-.559 1.054c-.753 1.414-1.943 2.546-3.393 3.229l-.57.267a1.28 1.28 0 0 0-.551.494c-.131.215-.196.464-.186.716a1.28 1.28 0 0 0 .827 1.15c1.75.662 3.183 1.966 4.007 3.646l.408.831c.106.215.269.395.472.522s.438.194.677.194a1.28 1.28 0 0 0 1.151-.716l.409-.831c.824-1.68 2.256-2.984 4.006-3.646a1.28 1.28 0 0 0 .826-1.15 1.28 1.28 0 0 0-.737-1.209zm-5.654 3.608a9.9 9.9 0 0 0-2.438-2.466c.951-.681 1.776-1.523 2.438-2.487a10.06 10.06 0 0 0 2.438 2.487c-.951.672-1.776 1.508-2.437 2.466z" fill="url(#A)" fill-rule="evenodd" stroke="none"></path><path id="D" d="M14.387 32.041l-.666-.312c-1.693-.798-3.083-2.121-3.963-3.772l-.653-1.231a1.5 1.5 0 0 0-1.324-.796 1.5 1.5 0 0 0-1.324.796l-.653 1.231c-.88 1.652-2.271 2.975-3.964 3.772l-.666.312a1.5 1.5 0 0 0-.861 1.413 1.5 1.5 0 0 0 .966 1.344c2.045.774 3.719 2.297 4.682 4.26l.477.971a1.5 1.5 0 0 0 1.342.836 1.5 1.5 0 0 0 1.344-.837l.478-.971c.962-1.963 2.636-3.486 4.681-4.26a1.5 1.5 0 0 0 .965-1.344 1.5 1.5 0 0 0-.861-1.413h.001zM7.78 36.257c-.772-1.121-1.736-2.096-2.848-2.882 1.111-.796 2.075-1.779 2.848-2.906a11.75 11.75 0 0 0 2.848 2.906 11.57 11.57 0 0 0-2.848 2.882z" fill="url(#A)" fill-rule="evenodd" stroke="none"></path></svg>