<svg xmlns="http://www.w3.org/2000/svg" xmlns:v="https://vecta.io/nano" width="45" height="52"><style>#B{animation:eCYKJZojQnU2_f_o 5000ms linear infinite normal forwards}#C{animation:eCYKJZojQnU3_f_o 5000ms linear infinite normal forwards}#D{animation:eCYKJZojQnU4_f_o 5000ms linear infinite normal forwards}@keyframes eCYKJZojQnU2_f_o{0%{fill-opacity:1}10%{fill-opacity:1}20%{fill-opacity:0}30%{fill-opacity:0}40%{fill-opacity:1}100%{fill-opacity:1}} @keyframes eCYKJZojQnU3_f_o{0%{fill-opacity:1}70%{fill-opacity:1}80%{fill-opacity:0}90%{fill-opacity:0}100%{fill-opacity:1}} @keyframes eCYKJZojQnU4_f_o{0%{fill-opacity:1}50%{fill-opacity:1}60%{fill-opacity:0}70%{fill-opacity:0}80%{fill-opacity:1}100%{fill-opacity:1}}</style><defs><linearGradient id="A" x1="11.625" y1="55.895" x2="58.499" y2="40.299" spreadMethod="pad" gradientUnits="userSpaceOnUse"><stop offset="0%" stop-color="#35e0d1"></stop><stop offset="100%" stop-color="#ee83ef"></stop></linearGradient></defs><path id="B" d="M13.661 46.044l.561.263c1.424.671 2.594 1.784 3.334 3.174l.549 1.036a1.26 1.26 0 0 0 1.114.67 1.26 1.26 0 0 0 1.114-.67l.549-1.036c.741-1.39 1.91-2.503 3.335-3.174l.561-.263a1.26 1.26 0 0 0 .725-1.189 1.26 1.26 0 0 0-.812-1.131 7.24 7.24 0 0 1-3.939-3.584l-.401-.817a1.26 1.26 0 0 0-1.13-.704 1.26 1.26 0 0 0-1.131.704l-.402.817a7.24 7.24 0 0 1-3.938 3.584 1.26 1.26 0 0 0-.812 1.131 1.26 1.26 0 0 0 .724 1.189zm5.558-3.547a9.73 9.73 0 0 0 2.397 2.425c-.935.669-1.746 1.497-2.396 2.445-.65-.948-1.461-1.776-2.396-2.445a9.73 9.73 0 0 0 2.396-2.425z" fill="url(#A)" fill-rule="evenodd" stroke="none"></path><path id="C" d="M1.729 8.822l.594.278c1.509.711 2.748 1.89 3.533 3.362l.582 1.098c.114.214.284.394.491.519s.446.191.688.191.481-.066.688-.191.378-.304.491-.519l.582-1.098A7.74 7.74 0 0 1 12.913 9.1l.594-.278c.238-.111.437-.29.574-.514s.204-.483.194-.745-.097-.516-.25-.729-.366-.376-.611-.469A7.67 7.67 0 0 1 9.24 2.567l-.425-.865c-.11-.224-.28-.412-.492-.544S7.868.956 7.618.956s-.494.07-.706.202-.382.32-.493.544l-.426.865a7.67 7.67 0 0 1-4.172 3.797c-.245.093-.458.256-.611.47s-.24.466-.25.729.058.521.194.745.335.403.573.514zm5.889-3.758a10.31 10.31 0 0 0 2.539 2.569 10.47 10.47 0 0 0-2.539 2.591C6.929 9.219 6.07 8.342 5.08 7.633a10.31 10.31 0 0 0 2.538-2.569z" fill="url(#A)" fill-rule="evenodd" stroke="none"></path><path id="D" d="M29.39 17.925l.694.325c1.763.831 3.211 2.209 4.128 3.929l.68 1.282a1.56 1.56 0 0 0 1.379.829 1.56 1.56 0 0 0 1.378-.829l.68-1.282c.917-1.72 2.365-3.098 4.128-3.929l.694-.325a1.56 1.56 0 0 0 .897-1.472 1.56 1.56 0 0 0-1.006-1.4 8.96 8.96 0 0 1-4.876-4.437l-.497-1.011a1.56 1.56 0 0 0-1.398-.871 1.56 1.56 0 0 0-1.4.872l-.497 1.011a8.96 8.96 0 0 1-4.875 4.436 1.56 1.56 0 0 0-1.005 1.4 1.56 1.56 0 0 0 .897 1.471h-.001zm6.881-4.391c.805 1.167 1.808 2.183 2.966 3.001-1.157.829-2.161 1.853-2.966 3.027-.805-1.174-1.809-2.198-2.966-3.027 1.157-.818 2.162-1.834 2.966-3.001z" fill="url(#A)" fill-rule="evenodd" stroke="none"></path></svg>